USFL
nRows=154
nColumns=2
inDegrees=yes
endheader
time	soleus_r	
2.37485	 44.436819	
2.43734	 45.160510	
2.49984	 42.048051	
2.56234	 42.756567	
2.62483	 41.802285	
2.68733	 40.469019	
2.74982	 40.282340	
2.81232	 40.756657	
2.87482	 40.455519	
2.93731	 40.242533	
2.99981	 39.979111	
3.0623	 39.038032	
3.1248	 37.276525	
3.1873	 36.996335	
3.24979	 36.159335	
3.31229	 37.488307	
3.37478	 36.988194	
3.43728	 36.372797	
3.49978	 36.051991	
3.56227	 36.451664	
3.62477	 36.487062	
3.68726	 34.712692	
3.74976	 33.043933	
3.81226	 32.961159	
3.87475	 33.353508	
3.93725	 33.525403	
3.99974	 34.914670	
4.06224	 34.205002	
4.12474	 33.949677	
4.18723	 32.765615	
4.24973	 29.648227	
4.31222	 25.831808	
4.37472	 25.764534	
4.43722	 17.857312	
4.49971	 13.802236	
4.56221	 16.698029	
4.6247	 16.484763	
4.6872	 22.888888	
4.7497	 22.888888	
4.81219	 15.501789	
4.87469	 11.133086	
4.93718	 12.864034	
4.99968	 12.864034	
5.06218	 13.571468	
5.12467	 13.571468	
5.18717	 12.748726	
5.24966	 11.701170	
5.31216	 11.701170	
5.37466	 11.701170	
5.43715	 12.554026	
5.49965	 12.703708	
5.56214	 12.703708	
5.62464	 12.703708	
5.68714	 12.703708	
5.74963	 12.703708	
5.81213	 12.703708	
5.87462	 12.700331	
5.93712	 12.116294	
5.99962	 16.336090	
6.06211	 16.892977	
6.12461	 17.533506	
6.1871	 19.556473	
6.2496	 19.645748	
6.3121	 19.556063	
6.37459	 19.556063	
6.43709	 14.313727	
6.49958	 14.563730	
6.56208	 12.613432	
6.62458	 12.613432	
6.68707	 12.613432	
6.74957	 14.405045	
6.81206	 12.592039	
6.87456	 12.592039	
6.93706	 11.347624	
6.99955	 12.634061	
7.06205	 12.526637	
7.12454	 12.505760	
7.18704	 13.320459	
7.24954	 12.545414	
7.31203	 12.440012	
7.37453	 10.164377	
7.43702	 10.308698	
7.49952	 15.257561	
7.56202	 15.134549	
7.62451	 15.216143	
7.68701	 15.242719	
7.7495	 15.179794	
7.812	 15.284705	
7.8745	 15.611340	
7.93699	 20.206715	
7.99949	 20.206715	
8.06198	 19.465494	
8.12448	 19.340777	
8.18698	 19.419619	
8.24947	 17.289114	
8.31197	 17.772180	
8.37446	 17.428630	
8.43696	 14.555372	
8.49946	 16.085904	
8.56195	 16.903051	
8.62445	 15.568640	
8.68694	 14.700646	
8.74944	 15.071969	
8.81194	 13.471361	
8.87443	 14.092755	
8.93693	 14.950059	
8.99942	 12.694759	
9.06192	 16.325172	
9.12442	 16.687880	
9.18691	 18.105194	
9.24941	 16.282677	
9.3119	 16.624489	
9.3744	 19.174059	
9.4369	 19.116799	
9.49939	 17.365696	
9.56189	 17.282334	
9.62438	 17.357622	
9.68688	 17.495520	
9.74938	 17.448739	
9.81187	 17.357063	
9.87437	 17.521349	
9.93686	 17.244843	
9.99936	 17.649114	
10.0619	 17.526570	
10.1244	 17.199100	
10.1868	 17.304714	
10.2493	 17.218246	
10.3118	 17.482425	
10.3743	 17.718118	
10.4368	 17.698069	
10.4993	 17.648601	
10.5618	 18.151114	
10.6243	 17.948957	
10.6868	 15.572189	
10.7493	 19.865009	
10.8118	 19.879940	
10.8743	 20.495945	
10.9368	 19.204121	
10.9993	 25.574894	
11.0618	 28.581907	
11.1243	 30.022162	
11.1868	 29.938246	
11.2493	 31.167756	
11.3118	 31.826122	
11.3743	 31.920297	
11.4368	 31.577313	
11.4993	 30.287862	
11.5618	 30.137241	
11.6243	 32.084036	
11.6868	 40.978595	
11.7492	 40.934680	
11.8117	 41.185813	
11.8742	 34.878218	
11.9367	 34.161993	
